<svg width="92" height="64" viewBox="0 0 92 64" fill="none" xmlns="http://www.w3.org/2000/svg">
<g clip-path="url(#clip0)">
<path d="M20.0868 26.7847H20.2092C21.4916 26.7847 22.6575 27.2367 23.7068 28.1407C23.8338 28.2272 23.9392 28.3412 24.015 28.4742C24.0908 28.6072 24.1349 28.7555 24.144 28.9079C24.1443 29.0507 24.105 29.1908 24.0303 29.313C23.9557 29.4351 23.8486 29.5346 23.7207 29.6006C23.6139 29.6603 23.4936 29.6925 23.371 29.6941H23.329C23.1891 29.6869 23.0527 29.6486 22.9298 29.582C22.8069 29.5155 22.7007 29.4224 22.619 29.3097C21.9588 28.7262 21.108 28.3984 20.2232 28.3866H20.0728C19.1849 28.3962 18.3319 28.7298 17.677 29.3235C17.4292 29.5446 17.2096 29.7946 17.0229 30.0682C16.6544 30.6413 16.4534 31.3043 16.4423 31.9836V32.1256C16.4481 32.8741 16.693 33.6016 17.1418 34.2038C17.1418 34.2038 17.1418 34.2038 17.1418 34.2177C17.078 34.2041 17.013 34.1971 16.9477 34.1969C16.6865 34.1997 16.4363 34.3014 16.2483 34.4811C16.0604 34.6608 15.949 34.9048 15.9369 35.1633V35.262C15.2278 34.3605 14.8415 33.2511 14.8387 32.1083V31.9871C14.8451 30.7919 15.2683 29.6356 16.0366 28.7139C16.2728 28.4305 16.5371 28.1712 16.8253 27.9398C17.7475 27.1974 18.8984 26.7898 20.0868 26.7847ZM16.9092 34.4203H17.0159C17.231 34.4203 17.4619 34.5519 17.7049 34.8169C18.3744 35.3965 19.2325 35.7175 20.1218 35.7209H20.2005C21.1565 35.7209 22.0221 35.3555 22.7974 34.6247C22.9433 34.4898 23.1365 34.4165 23.336 34.4203C23.7033 34.4203 23.9638 34.6172 24.1177 35.0109C24.1291 35.068 24.1362 35.1259 24.1387 35.184V35.2481C24.1387 35.5044 23.9953 35.7434 23.7085 35.9651C22.7611 36.8111 21.5386 37.2923 20.2632 37.3213C18.9879 37.3502 17.7444 36.9249 16.7588 36.1227C16.3899 35.8231 16.1922 35.591 16.1625 35.43C16.1491 35.3545 16.142 35.278 16.1415 35.2014C16.1416 35.0663 16.1774 34.9336 16.2456 34.8165C16.3137 34.6995 16.4117 34.6023 16.5298 34.5346C16.6425 34.461 16.7743 34.4213 16.9092 34.4203Z" fill="#1D1D1B"/>
<path d="M26.8721 27.5379V36.5746C26.8696 36.7234 26.8232 36.8683 26.7387 36.9914C26.6542 37.1144 26.5352 37.2104 26.3964 37.2674C26.2955 37.3154 26.1848 37.3397 26.0729 37.3384H26.0641C25.8937 37.3403 25.7271 37.2883 25.5887 37.1898C25.4503 37.0914 25.3472 36.9517 25.2947 36.7911C25.2718 36.7199 25.2594 36.6459 25.2579 36.5712V27.5449C25.2609 27.3971 25.3067 27.2533 25.3898 27.1305C25.4728 27.0077 25.5897 26.9111 25.7266 26.8521C25.8235 26.8069 25.929 26.7827 26.0361 26.7811H26.0974C26.2447 26.7826 26.3885 26.8253 26.5123 26.9044C26.6361 26.9835 26.7348 27.0956 26.7969 27.2279C26.8467 27.3238 26.8725 27.4301 26.8721 27.5379ZM32.9928 27.5379V27.602C32.9928 27.9276 32.8057 28.1753 32.4332 28.3398C32.323 28.3646 32.2104 28.3768 32.0974 28.3761H27.1134C27.1106 28.3764 27.1077 28.3761 27.1051 28.3751C27.1024 28.3742 27.1 28.3726 27.098 28.3707C27.0959 28.3687 27.0944 28.3663 27.0935 28.3636C27.0925 28.361 27.0921 28.3582 27.0924 28.3554V27.5691C27.0907 27.4184 27.0558 27.2698 26.9903 27.1337C26.9248 26.9977 26.8301 26.8773 26.7129 26.7811H32.2181C32.5434 26.7811 32.7882 26.9543 32.9561 27.3215C32.9772 27.3942 32.989 27.4692 32.9911 27.5449L32.9928 27.5379ZM32.9928 28.2047V36.5452C32.9902 36.702 32.9406 36.8546 32.8504 36.9835C32.7601 37.1124 32.6331 37.2118 32.4857 37.2691C32.3955 37.2998 32.3011 37.3167 32.2058 37.3193H32.1849C31.8351 37.3193 31.571 37.1288 31.4137 36.7513C31.3876 36.6465 31.3759 36.5388 31.3787 36.4309V28.6082C31.3784 28.6054 31.3788 28.6026 31.3797 28.6C31.3807 28.5973 31.3822 28.5949 31.3842 28.5929C31.3862 28.5909 31.3887 28.5894 31.3913 28.5885C31.394 28.5875 31.3968 28.5872 31.3997 28.5874H32.2058C32.3557 28.5855 32.5032 28.5506 32.6378 28.4853C32.7724 28.42 32.8906 28.3259 32.9841 28.2099L32.9928 28.2047Z" fill="#1D1D1B"/>
<path d="M34.8658 26.7847H34.9305C35.2592 26.7847 35.5058 26.97 35.6737 27.3389C35.6974 27.4487 35.7091 27.5608 35.7087 27.6731V35.494C35.709 35.4968 35.7086 35.4997 35.7076 35.5023C35.7067 35.5049 35.7051 35.5073 35.7031 35.5093C35.7011 35.5113 35.6987 35.5128 35.696 35.5138C35.6934 35.5147 35.6905 35.5151 35.6877 35.5148H34.8937C34.7421 35.5171 34.5928 35.5518 34.456 35.6167C34.3193 35.6816 34.1983 35.775 34.1016 35.8906V27.5519C34.1016 27.2297 34.2764 26.9856 34.6437 26.821C34.7159 26.7999 34.7905 26.7877 34.8658 26.7847ZM34.8658 35.7348H41.0635C41.2136 35.7369 41.3598 35.7824 41.4841 35.8658C41.6084 35.9492 41.7053 36.0668 41.763 36.2041C41.8117 36.3033 41.8362 36.4124 41.8347 36.5227C41.8365 36.6913 41.7839 36.856 41.6845 36.9928C41.5851 37.1296 41.444 37.2313 41.2821 37.283C41.2102 37.3057 41.1354 37.3179 41.06 37.3194H34.8693C34.7204 37.3159 34.5756 37.2706 34.4517 37.1888C34.3279 37.1069 34.2301 36.9918 34.1698 36.857C34.1243 36.7616 34.0998 36.6577 34.0981 36.5522V36.4881C34.101 36.3437 34.1451 36.203 34.2252 36.0823C34.3054 35.9616 34.4183 35.8657 34.551 35.8058C34.6474 35.7575 34.7542 35.7331 34.8623 35.7348H34.8658ZM35.5478 26.7847H41.0495C41.3642 26.7847 41.6079 26.9527 41.7805 27.2886C41.8134 27.3788 41.8323 27.4734 41.8364 27.5692V27.5917C41.8364 27.9381 41.6441 28.2013 41.2628 28.3572C41.1571 28.3836 41.0483 28.3959 40.9393 28.3935H35.9448C35.9419 28.3938 35.9391 28.3935 35.9364 28.3925C35.9338 28.3916 35.9313 28.39 35.9293 28.388C35.9273 28.3861 35.9258 28.3837 35.9248 28.381C35.9239 28.3784 35.9235 28.3756 35.9238 28.3728V27.5692C35.922 27.4204 35.8871 27.2739 35.8215 27.1401C35.7559 27.0063 35.6612 26.8884 35.5443 26.7951L35.5478 26.7847ZM35.9483 31.2528H41.0197C41.4115 31.2528 41.679 31.4589 41.8224 31.8711C41.8317 31.9318 41.8369 31.9932 41.8382 32.0546C41.8382 32.4391 41.6301 32.6989 41.2139 32.8374C41.1523 32.8502 41.0896 32.8571 41.0267 32.8582H35.9553C35.9524 32.8585 35.9496 32.8581 35.9469 32.8572C35.9443 32.8562 35.9418 32.8547 35.9398 32.8527C35.9378 32.8507 35.9363 32.8483 35.9353 32.8457C35.9344 32.843 35.934 32.8402 35.9343 32.8374V31.2788C35.9331 31.2764 35.9325 31.2738 35.9324 31.2712C35.9323 31.2686 35.9328 31.2659 35.9338 31.2635C35.9348 31.2611 35.9363 31.2589 35.9381 31.257C35.94 31.2552 35.9423 31.2537 35.9448 31.2528H35.9483Z" fill="#1D1D1B"/>
<path d="M48.2894 26.7847H48.3541C48.5017 26.7849 48.6461 26.8271 48.7702 26.9063C48.8942 26.9855 48.9926 27.0984 49.0536 27.2315C49.1052 27.3281 49.1322 27.4357 49.1323 27.5449V27.6229C49.1323 27.8688 48.9819 28.1153 48.6812 28.3624L44.5488 32.4668V36.5591C44.5488 36.8708 44.3739 37.1098 44.0241 37.2761C43.9247 37.3107 43.82 37.3277 43.7146 37.3263C43.3858 37.3263 43.1375 37.1531 42.9696 36.8068C42.9407 36.7249 42.9259 36.6389 42.9259 36.5522V32.1187C42.9346 31.9745 42.9767 31.8342 43.0488 31.7087C43.121 31.5832 43.2213 31.4758 43.3421 31.3948C46.3302 28.4241 47.8318 26.9394 47.847 26.9405C47.9735 26.8424 48.1288 26.7877 48.2894 26.7847ZM43.7059 26.7847H43.7706C44.0772 26.7847 44.3162 26.9503 44.4876 27.2817C44.52 27.3589 44.5395 27.4408 44.5453 27.5242V29.8881L42.9381 31.4866V27.5519C42.9412 27.4043 42.9868 27.2607 43.0695 27.138C43.1522 27.0153 43.2687 26.9185 43.4051 26.8591C43.499 26.8138 43.6015 26.7885 43.7059 26.7847ZM45.1049 32.2763C45.1766 32.2763 45.2885 32.3629 45.4424 32.5378C47.7893 34.8538 48.9749 36.0309 48.9994 36.069C49.0748 36.1861 49.1193 36.3201 49.1288 36.4587V36.5747C49.1288 36.8784 48.9592 37.115 48.6199 37.2848C48.5209 37.3184 48.4169 37.3353 48.3122 37.335C48.0393 37.335 47.7712 37.1739 47.5077 36.8518C45.7589 35.1315 44.8694 34.2483 44.8391 34.2021C44.7916 34.1328 44.7644 34.0519 44.7604 33.9683V32.7248C44.7683 32.6357 44.7987 32.55 44.8488 32.4755C44.8989 32.4011 44.9671 32.3403 45.0472 32.2988L45.1049 32.2763Z" fill="#1D1D1B"/>
<path d="M51.0087 26.7846H55.5661C55.7106 26.7825 55.8528 26.8207 55.9765 26.8948C56.1002 26.9689 56.2004 27.076 56.2656 27.2037C56.333 27.3207 56.3674 27.4535 56.3653 27.5882V31.4155C56.2728 31.3046 56.1577 31.2144 56.0275 31.1508C55.8973 31.0873 55.7549 31.0517 55.6098 31.0467H55.5241C55.3787 31.0516 55.2361 31.0871 55.1055 31.1506C54.975 31.2142 54.8596 31.3045 54.7669 31.4155V28.39H51.1294C50.6631 28.39 50.3716 28.1839 50.255 27.7718C50.2459 27.7203 50.2412 27.6682 50.241 27.6159V27.5518C50.241 27.2297 50.4223 26.9861 50.7849 26.821C50.8577 26.7997 50.9329 26.7875 51.0087 26.7846ZM55.5556 31.2528C55.7148 31.2517 55.8705 31.2987 56.002 31.3875C56.1335 31.4763 56.2346 31.6027 56.2918 31.7498C56.335 31.8456 56.3565 31.9497 56.3548 32.0546V36.5227C56.3595 36.6923 56.3085 36.8587 56.2095 36.9971C56.1105 37.1354 55.9688 37.2382 55.8057 37.2899C55.7338 37.3128 55.659 37.3251 55.5836 37.3263H55.5136C55.2035 37.3263 54.9651 37.1583 54.7984 36.8223C54.7597 36.7175 54.7407 36.6066 54.7424 36.495V32.0615C54.7407 31.8979 54.7902 31.7378 54.8841 31.6032C54.9781 31.4686 55.1119 31.3661 55.267 31.3099C55.36 31.2731 55.459 31.2538 55.5591 31.2528H55.5556ZM56.2044 26.7846H60.0989C60.2479 26.7877 60.3929 26.8328 60.5168 26.9147C60.6408 26.9966 60.7385 27.1119 60.7984 27.247C60.8447 27.3422 60.8692 27.4462 60.8701 27.5518V27.6228C60.8681 27.7284 60.8435 27.8324 60.798 27.9279C60.7525 28.0234 60.6871 28.1083 60.6061 28.177C60.5206 28.2525 60.4206 28.3103 60.3122 28.3469C60.2038 28.3834 60.089 28.3981 59.9748 28.39H56.5961C56.5933 28.3903 56.5904 28.39 56.5878 28.389C56.5851 28.3881 56.5827 28.3865 56.5807 28.3845C56.5787 28.3826 56.5771 28.3802 56.5762 28.3775C56.5752 28.3749 56.5749 28.372 56.5751 28.3693V27.531C56.5701 27.3891 56.5347 27.2498 56.4715 27.1224C56.4082 26.9949 56.3183 26.8822 56.2079 26.7916L56.2044 26.7846Z" fill="#1D1D1B"/>
<path d="M64.6073 26.7846H65.0375C65.1995 26.7754 65.3606 26.8146 65.5 26.897C65.6393 26.9795 65.7505 27.1014 65.8192 27.247C65.8736 27.3544 65.9012 27.4732 65.8996 27.5934C65.8996 27.9571 65.702 28.2151 65.3103 28.3675C65.2376 28.3853 65.1631 28.3946 65.0882 28.3952H62.7571C62.6082 28.3918 62.4634 28.3465 62.3395 28.2646C62.2157 28.1827 62.1179 28.0677 62.0576 27.9328C62.0121 27.8374 61.9876 27.7335 61.9859 27.628V27.564C61.9888 27.4133 62.0358 27.2666 62.1211 27.1418C62.2065 27.017 62.3265 26.9194 62.4668 26.8608C62.5408 26.832 62.6175 26.8105 62.6959 26.7968C63.4688 26.7875 64.106 26.7835 64.6073 26.7846ZM61.9841 28.2342C62.0896 28.3556 62.2211 28.4521 62.369 28.5168C62.517 28.5816 62.6776 28.6128 62.8393 28.6083H63.5825C63.5865 28.6101 63.5899 28.6131 63.5924 28.6167C63.5949 28.6204 63.5963 28.6246 63.5965 28.629V36.5747C63.5937 36.7225 63.548 36.8664 63.4649 36.9892C63.3818 37.1121 63.2648 37.2086 63.1278 37.2674C63.0335 37.3129 62.9302 37.3372 62.8253 37.3384H62.7606C62.433 37.3384 62.1858 37.1583 62.0191 36.7981C61.9972 36.7243 61.9848 36.6481 61.9824 36.5712L61.9841 28.2342ZM63.8343 31.3376H65.0952C65.4531 31.3376 65.7113 31.5247 65.8699 31.8987C65.8945 31.9844 65.9068 32.073 65.9066 32.162C65.9066 32.4795 65.7317 32.7231 65.382 32.8928C65.2692 32.9292 65.1509 32.9462 65.0322 32.943H63.8413C63.8273 32.943 63.8203 32.943 63.8203 32.9292V31.3584C63.8203 31.3446 63.8244 31.3376 63.8326 31.3376H63.8343ZM65.8279 26.8764H65.8419C66.3762 27.0023 66.8644 27.2734 67.2514 27.6592C67.375 27.7613 67.486 27.8776 67.582 28.0056C67.9715 28.5155 68.1882 29.1345 68.201 29.7738V29.9366C68.201 30.7032 67.8892 31.4115 67.2654 32.0615C66.9372 32.368 66.5508 32.607 66.1287 32.7647C66.0378 32.7924 65.9381 32.8201 65.8279 32.8495C65.9974 32.6662 66.0959 32.4294 66.106 32.181V32.1031C66.1015 31.9299 66.0524 31.7607 65.9633 31.6116C65.8743 31.4625 65.7482 31.3383 65.5971 31.251C65.8404 31.1678 66.0562 31.0205 66.2214 30.825C66.3556 30.6742 66.4566 30.4975 66.5182 30.306C66.5797 30.1145 66.6003 29.9124 66.5788 29.7126C66.5573 29.5128 66.494 29.3196 66.393 29.1453C66.2921 28.971 66.1556 28.8193 65.9923 28.7C65.8737 28.6094 65.7431 28.5354 65.6041 28.4801C65.7548 28.3958 65.8809 28.2743 65.97 28.1274C66.0592 27.9805 66.1085 27.8132 66.113 27.6419V27.557C66.1038 27.3036 66.0026 27.0619 65.8279 26.8764Z" fill="#1D1D1B"/>
<path d="M84.6519 26.7846H84.6956C84.8451 26.7936 84.9904 26.8367 85.1203 26.9107C85.2501 26.9846 85.361 27.0872 85.4441 27.2106C86.1436 27.9034 86.9014 28.6538 87.7175 29.462C87.2453 29.9313 87.0075 30.1825 87.0075 30.2154C86.9127 30.3593 86.8606 30.5267 86.8571 30.6985V30.8544C84.9404 28.9782 83.9821 28.0292 83.9821 28.0073C83.9151 27.8872 83.878 27.753 83.8737 27.6159V27.5518C83.8767 27.404 83.9224 27.2602 84.0055 27.1374C84.0886 27.0146 84.2055 26.918 84.3423 26.8591C84.439 26.8126 84.5445 26.7872 84.6519 26.7846ZM83.8737 28.2272L85.4808 29.8257V36.5365C85.483 36.7046 85.4302 36.8688 85.3302 37.0046C85.2303 37.1404 85.0886 37.2405 84.9264 37.2899C84.8666 37.3125 84.8033 37.3248 84.7393 37.3263H84.6081C84.4822 37.3193 84.3599 37.2819 84.252 37.2173C84.1441 37.1527 84.0538 37.0628 83.9891 36.9557C83.9101 36.8381 83.8675 36.7003 83.8667 36.5591L83.8737 28.2272ZM90.0346 27.4739V29.7252C88.9119 30.8579 88.3336 31.4236 88.2998 31.4224C88.186 31.496 88.0544 31.5379 87.9186 31.5437H87.8329C87.5076 31.5437 87.2593 31.3636 87.0879 31.0033C87.0701 30.9196 87.0601 30.8343 87.0582 30.7488C87.067 30.599 87.1104 30.4532 87.185 30.3226C87.2595 30.192 87.3633 30.0801 87.4884 29.9954C88.2987 29.1861 89.1474 28.3456 90.0346 27.4739ZM91.0472 26.7811H91.0891C91.4249 26.7811 91.6738 26.9612 91.8359 27.3215C91.8549 27.3834 91.8666 27.4473 91.8708 27.512V36.5902C91.8648 36.7199 91.8246 36.8458 91.7544 36.9555C91.6842 37.0651 91.5863 37.1547 91.4704 37.2154C91.3636 37.2843 91.2392 37.3215 91.1119 37.3228H91.0174C90.8812 37.3188 90.7485 37.2792 90.6327 37.208C90.5169 37.1369 90.4222 37.0367 90.3581 36.9176C90.2901 36.7957 90.2552 36.6585 90.2567 36.5192V27.5882C90.2536 27.4213 90.3041 27.2577 90.4009 27.1211C90.4977 26.9845 90.6358 26.8818 90.7953 26.8279C90.8756 26.7972 90.9612 26.7825 91.0472 26.7846V26.7811Z" fill="#1D1D1B"/>
<path d="M0 16.3262V32.2175L10.5452 22.3564L0 16.3262Z" fill="#D31216"/>
<path d="M10.5452 22.3563L0 32.2174H10.5452V22.3563Z" fill="#E73231"/>
<path d="M0 32.2174L10.5452 42.0785V32.2174H0Z" fill="#B71918"/>
<path d="M0 48.1104L10.5452 42.0785L0 32.2174V48.1104Z" fill="#515151"/>
<path d="M0 16.3261L10.5452 22.3564L13.8976 8.38049L0 16.3261Z" fill="#BF1826"/>
<path d="M13.8976 8.38046L27.7952 12.4936V0.434814L13.8976 8.38046Z" fill="#ED6869"/>
<path d="M27.7952 0.434814V12.4936L41.9953 8.55538L27.7952 0.434814Z" fill="#E83E3F"/>
<path d="M10.5452 22.3564L19.1702 17.4241L13.8976 8.38049L10.5452 22.3564Z" fill="#E84342"/>
<path d="M13.8976 8.38049L19.1702 17.4241L27.7952 12.4936L13.8976 8.38049Z" fill="#E73231"/>
<path d="M27.7952 64L41.9953 55.8812L27.7952 51.9413V64Z" fill="#5A5B5C"/>
<path d="M55.5885 48.1105L45.0434 42.0785L41.9953 55.8812L55.5885 48.1105Z" fill="#ABAEAF"/>
<path d="M36.4184 47.009L41.9953 55.8812L45.0434 42.0785L36.4184 47.009Z" fill="#5D6061"/>
<path d="M27.7952 51.9413L41.9953 55.8812L36.4184 47.009L27.7952 51.9413Z" fill="#333333"/>
<path d="M27.7952 51.9413L13.8976 56.0544L27.7952 64V51.9413Z" fill="#A9A9A9"/>
<path d="M0 48.1105L13.8976 56.0544L10.5452 42.0785L0 48.1105Z" fill="#353535"/>
<path d="M10.5452 42.0785L13.8976 56.0544L19.1702 47.009L10.5452 42.0785Z" fill="#5F6160"/>
<path d="M19.1702 47.009L13.8976 56.0544L27.7952 51.9413L19.1702 47.009Z" fill="#575656"/>
<path d="M82.0759 35.7123L74.4022 28.5494L67.5715 35.7261L82.0759 35.7123Z" fill="#A9A9A9"/>
<path d="M41.9953 8.55542L27.7952 12.4936L36.4184 17.4241L41.9953 8.55542Z" fill="#EA5C5C"/>
<path d="M41.9953 8.55542L36.4184 17.4241L45.0434 22.3564L41.9953 8.55542Z" fill="#B71918"/>
</g>
<defs>
<clipPath id="clip0">
<rect width="92" height="64" fill="white"/>
</clipPath>
</defs>
</svg>
