<svg width="24" height="24" viewBox="0 0 24 24" fill="none" xmlns="http://www.w3.org/2000/svg">
<path fill-rule="evenodd" clip-rule="evenodd" d="M0 12C0 5.37258 5.37258 0 12 0C18.6274 0 24 5.37258 24 12C24 18.6274 18.6274 24 12 24C5.37258 24 0 18.6274 0 12Z" fill="#D83933"/>
<path fill-rule="evenodd" clip-rule="evenodd" d="M18.1326 9.03671C17.9854 8.4712 17.5517 8.02589 17.0009 7.87476C16.0028 7.6001 12.0001 7.6001 12.0001 7.6001C12.0001 7.6001 7.99741 7.6001 6.99923 7.87476C6.44846 8.02589 6.01472 8.4712 5.86752 9.03671C5.6001 10.0616 5.6001 12.2001 5.6001 12.2001C5.6001 12.2001 5.6001 14.3385 5.86752 15.3635C6.01472 15.929 6.44846 16.3743 6.99923 16.5255C7.99741 16.8001 12.0001 16.8001 12.0001 16.8001C12.0001 16.8001 16.0028 16.8001 17.0009 16.5255C17.5517 16.3743 17.9854 15.929 18.1326 15.3635C18.4001 14.3385 18.4001 12.2001 18.4001 12.2001C18.4001 12.2001 18.4001 10.0616 18.1326 9.03671Z" fill="white"/>
<path fill-rule="evenodd" clip-rule="evenodd" d="M10.8 14.3999V10.3999L14 12.4L10.8 14.3999Z" fill="#FF0000"/>
</svg>
